<?xml version="1.0" standalone="no"?>
<!DOCTYPE svg PUBLIC "-//W3C//DTD SVG 20010904//EN"
 "http://www.w3.org/TR/2001/REC-SVG-20010904/DTD/svg10.dtd">
<svg version="1.0" xmlns="http://www.w3.org/2000/svg"
 width="1024.000000pt" height="1024.000000pt" viewBox="0 0 1024.000000 1024.000000"
 preserveAspectRatio="xMidYMid meet">

<g transform="translate(0.000000,1024.000000) scale(0.100000,-0.100000)"
fill="#000000" stroke="none">
<path d="M0 5120 l0 -5120 5120 0 5120 0 0 5120 0 5120 -5120 0 -5120 0 0
-5120z m3104 3510 c-33 -185 -28 -324 18 -560 82 -423 287 -801 634 -1169 101
-107 290 -273 379 -334 33 -22 74 -52 90 -65 17 -14 62 -40 101 -58 75 -34 94
-53 187 -185 25 -37 69 -92 97 -122 l51 -56 -33 11 c-18 6 -50 17 -71 25 -45
16 -234 128 -422 250 -176 115 -138 81 62 -54 89 -61 160 -113 157 -115 -3 -3
-41 7 -84 23 -77 27 -216 114 -365 228 -182 140 -450 450 -590 682 -128 212
-213 433 -266 689 -21 102 -24 142 -24 345 0 205 3 242 23 335 22 96 60 216
67 208 1 -2 -3 -37 -11 -78z m-308 -433 c0 -232 12 -344 56 -512 88 -345 260
-650 530 -943 370 -402 698 -625 1158 -788 163 -58 168 -60 162 -89 -3 -17 2
-25 20 -31 21 -7 21 -8 -12 -15 -51 -11 -235 23 -360 66 -222 77 -441 195
-623 335 -100 77 -75 52 44 -45 41 -34 103 -77 139 -98 83 -46 158 -97 145
-97 -14 -1 66 -40 82 -40 7 0 13 -5 13 -11 0 -5 5 -7 10 -4 6 3 10 2 10 -4 0
-6 7 -7 17 -4 11 4 14 3 9 -5 -4 -7 -1 -12 6 -13 50 -3 130 -34 153 -59 23
-26 13 -25 -79 5 -88 29 -241 99 -306 140 -25 16 -61 38 -81 49 -257 146 -501
351 -685 576 -255 312 -439 734 -485 1107 -19 161 10 490 57 636 9 26 16 47
17 47 1 0 2 -91 3 -203z m3454 79 c111 -18 276 -61 353 -90 86 -33 237 -104
237 -111 0 -8 -28 0 -130 40 -279 108 -627 153 -860 111 -84 -15 -260 -71
-372 -117 -137 -56 -334 -191 -465 -317 -96 -93 -210 -284 -265 -442 -32 -94
-32 -98 -32 -275 0 -170 2 -185 28 -265 58 -176 124 -277 288 -442 108 -110
192 -170 388 -281 418 -235 529 -300 640 -373 194 -128 295 -225 385 -369 109
-175 163 -416 136 -612 -24 -170 -100 -387 -173 -495 -157 -229 -315 -361
-617 -512 -323 -162 -707 -295 -996 -346 -147 -26 -412 -42 -520 -33 l-80 8
70 6 c389 36 410 42 953 288 252 114 319 149 447 234 203 136 275 203 403 375
145 195 201 330 212 512 4 63 7 109 8 102 1 -7 12 -17 25 -22 12 -5 16 -9 10
-9 -7 -1 -13 -5 -13 -11 0 -5 6 -9 13 -7 8 1 14 -24 18 -88 5 -75 6 -69 3 35
-4 195 -63 372 -168 508 -88 115 -281 274 -413 341 -65 32 -52 18 26 -29 83
-50 113 -74 103 -84 -4 -4 -7 -12 -7 -17 0 -5 -4 -9 -10 -8 -12 0 -173 94
-266 154 -36 24 -90 55 -120 70 -176 89 -461 269 -596 376 -79 64 -234 228
-284 301 -50 73 -104 197 -130 296 -29 110 -32 451 -6 562 26 112 81 254 138
354 49 86 191 260 264 324 96 85 384 255 494 293 83 29 257 68 353 78 111 13
422 5 528 -13z m-2636 -180 c47 -20 66 -51 66 -110 0 -43 -5 -55 -32 -83 -37
-38 -87 -44 -145 -16 -97 46 -91 157 11 207 39 19 58 20 100 2z m2581 -6 c268
-30 523 -125 775 -290 215 -140 445 -393 579 -635 155 -281 238 -589 248 -925
6 -204 -13 -330 -87 -551 -53 -159 -70 -197 -162 -359 -135 -237 -238 -375
-328 -440 l-26 -18 -1 121 c0 67 -6 142 -13 167 -6 25 -18 81 -26 125 -7 44
-23 111 -35 149 -19 59 -20 71 -9 90 90 140 131 235 171 394 37 146 48 272 37
409 -16 197 -62 374 -143 549 -116 253 -393 526 -643 634 -190 82 -319 110
-502 110 -142 0 -203 -12 -315 -64 l-74 -34 67 65 c37 36 85 74 107 86 62 31
212 67 290 67 39 1 126 7 195 14 69 7 132 12 140 10 8 -1 25 -3 38 -3 13 -1
20 -5 17 -11 -3 -5 0 -7 8 -4 25 9 67 -12 320 -159 90 -53 315 -261 387 -359
38 -52 63 -77 44 -45 -51 85 -246 280 -388 386 -97 73 -287 172 -401 210 -158
52 -234 64 -420 65 -148 0 -179 -2 -240 -21 -79 -25 -234 -122 -350 -220 -179
-150 -286 -372 -271 -560 12 -151 73 -268 204 -395 122 -118 175 -151 872
-536 210 -116 288 -170 404 -282 215 -207 316 -398 362 -679 18 -112 18 -293
-1 -407 -27 -170 -120 -394 -231 -561 -65 -98 -240 -283 -333 -353 -152 -114
-322 -201 -536 -274 -133 -46 -447 -133 -500 -139 l-50 -6 45 13 c183 53 481
199 685 337 161 108 269 208 380 349 99 126 151 219 194 345 84 251 92 449 26
673 -49 170 -99 267 -204 398 -77 96 -108 126 -232 218 -153 115 -152 114
-504 313 -383 216 -472 275 -589 388 -227 219 -294 384 -283 704 4 130 7 155
35 233 56 159 104 237 215 351 118 120 175 164 307 235 208 111 465 153 745
122z m-2532 -497 c24 -43 64 -116 87 -162 79 -153 229 -354 432 -579 48 -53
56 -67 48 -82 -9 -17 -14 -17 -43 -8 -77 27 -185 106 -274 201 -94 101 -303
404 -308 446 -1 9 -14 41 -28 71 -14 30 -29 74 -33 97 -5 36 -3 45 19 67 15
14 33 26 41 26 8 0 34 -35 59 -77z m2504 -194 c128 -17 233 -48 313 -91 91
-49 198 -128 264 -194 137 -137 265 -357 313 -539 24 -90 26 -118 27 -290 1
-224 -14 -314 -72 -434 -68 -138 -55 -133 -122 -48 -32 41 -65 77 -74 80 -13
5 -13 9 -1 35 27 54 57 225 62 357 5 114 2 144 -20 241 -31 136 -70 230 -142
341 -64 98 -127 161 -240 243 -158 113 -302 165 -495 177 -58 3 -99 8 -92 11
9 3 6 10 -9 23 -36 31 -61 32 -123 5 -70 -31 -81 -33 -42 -7 63 42 254 98 338
100 20 1 72 -4 115 -10z m-3574 -596 c56 -135 129 -266 196 -350 20 -27 57
-77 81 -112 46 -68 138 -176 260 -305 319 -336 765 -590 1200 -682 231 -48
665 -42 770 11 14 7 74 26 133 44 60 17 136 45 170 63 37 18 56 24 48 15 -7
-9 -48 -31 -91 -48 -63 -26 -76 -35 -66 -45 7 -7 19 -26 26 -43 7 -17 19 -31
26 -31 8 0 14 -8 14 -18 0 -25 -89 -68 -180 -86 -14 -3 0 -3 30 -1 l55 3 -45
-19 c-161 -71 -387 -105 -587 -88 -243 20 -484 67 -606 116 -34 14 -102 40
-152 58 -245 89 -364 162 -636 385 -43 35 -192 182 -230 226 -107 126 -253
354 -355 555 -95 189 -172 438 -199 642 -8 65 -15 121 -15 125 0 4 22 -58 49
-138 27 -80 74 -204 104 -277z m-358 128 c100 -364 277 -665 605 -1026 65 -71
148 -159 185 -194 60 -56 66 -65 52 -78 -13 -14 -22 -10 -78 28 -81 54 -305
277 -391 389 -221 287 -341 545 -394 850 -39 218 -32 227 21 31z m3901 37 c98
-86 86 -191 -28 -249 -50 -26 -91 -24 -139 6 -75 48 -99 124 -60 195 28 53 74
80 137 80 46 0 58 -5 90 -32z m-3258 -131 c34 -51 80 -119 102 -152 54 -82
267 -318 380 -422 223 -205 491 -376 775 -494 257 -107 489 -154 733 -147 86
2 132 0 119 -6 -14 -5 -17 -10 -9 -13 6 -3 12 -15 12 -28 0 -13 4 -26 9 -30 5
-3 12 -19 16 -35 5 -22 13 -30 28 -31 15 0 10 -5 -18 -15 -45 -17 -161 -19
-227 -5 -24 5 -86 15 -138 21 -129 16 -346 64 -454 101 -166 57 -425 179 -476
224 -8 7 -46 34 -85 60 -127 86 -258 198 -426 365 -91 91 -173 176 -182 190
-13 20 -13 17 2 -18 21 -49 45 -77 172 -194 395 -364 643 -522 1017 -649 115
-40 123 -42 227 -59 33 -6 78 -15 100 -21 45 -11 158 -27 285 -39 65 -6 42 -8
-100 -5 -205 3 -303 19 -503 80 -125 38 -293 103 -332 129 -14 10 -65 37 -113
62 -94 48 -343 219 -436 299 -107 91 -282 290 -335 381 -28 47 -51 88 -51 90
0 3 -18 32 -40 65 -42 60 -122 240 -135 301 -4 18 -12 38 -17 45 -6 8 -2 13
12 18 11 3 18 11 15 16 -4 5 -3 9 2 9 4 -1 36 -42 71 -93z m3724 -102 c27 -55
57 -118 65 -140 20 -54 42 -186 31 -179 -6 4 -8 -6 -7 -22 2 -16 0 -34 -3 -40
-4 -6 -5 -30 -3 -53 3 -38 2 -42 -15 -38 -11 3 -29 -3 -41 -14 -12 -10 -27
-16 -33 -12 -6 4 -5 -1 3 -10 12 -15 11 -17 -3 -17 -9 0 -16 -7 -16 -16 0 -33
-23 -94 -36 -94 -9 0 -7 14 7 56 11 30 29 110 40 177 21 119 21 190 2 301 -5
31 -3 37 7 31 19 -12 4 43 -21 78 -19 27 -59 112 -59 125 1 16 35 -40 82 -133z
m-4221 -595 c30 -36 85 -103 121 -150 278 -358 873 -739 1423 -909 403 -125
928 -130 1259 -12 258 91 352 132 464 199 91 55 108 61 34 11 -26 -18 -48 -33
-50 -34 -2 -2 6 -18 17 -36 30 -48 27 -93 -5 -118 -29 -23 -25 -27 9 -10 46
22 -39 -41 -98 -73 -162 -88 -372 -161 -588 -204 -112 -23 -162 -27 -332 -29
-204 -3 -184 5 50 20 61 4 117 9 125 13 8 3 40 12 70 18 l55 13 -50 -5 c-256
-25 -274 -26 -395 -14 -248 23 -427 59 -645 129 -165 54 -166 54 -115 31 65
-31 257 -88 390 -117 63 -14 133 -30 155 -36 l40 -10 -35 -9 c-41 -11 -91 -3
-310 52 -247 63 -363 110 -605 245 -369 207 -757 570 -942 880 -64 106 -138
266 -110 235 7 -8 38 -44 68 -80z m4336 23 c-3 -10 -5 -4 -5 12 0 17 2 24 5
18 2 -7 2 -21 0 -30z m-2217 -379 c40 -10 68 -20 62 -22 -17 -5 -112 18 -142
35 -14 8 -18 12 -10 10 8 -3 49 -13 90 -23z m-1749 -626 c157 -95 588 -296
794 -370 165 -59 258 -84 437 -117 236 -43 321 -51 528 -51 269 0 447 30 724
122 189 62 376 158 601 308 100 66 99 66 92 47 -3 -10 -2 -17 4 -17 5 0 22
-12 36 -27 14 -16 30 -27 35 -25 6 1 16 -2 23 -8 19 -16 30 7 13 28 -12 15
-11 16 5 3 9 -7 17 -19 17 -26 0 -17 -172 -154 -289 -230 -165 -107 -264 -152
-541 -246 -456 -156 -962 -142 -1560 41 -136 42 -391 143 -465 185 -232 132
-313 184 -425 273 -53 43 -190 184 -190 196 0 9 35 -10 161 -86z m3024 2 c-3
-5 -27 -24 -53 -41 -54 -37 -46 -25 13 20 43 33 49 36 40 21z m-1462 -367 c-7
-2 -19 -2 -25 0 -7 3 -2 5 12 5 14 0 19 -2 13 -5z m75 -10 c-10 -2 -26 -2 -35
0 -10 3 -2 5 17 5 19 0 27 -2 18 -5z m1417 -114 c-4 -5 -18 -14 -32 -20 -13
-5 -21 -13 -18 -19 3 -5 0 -7 -8 -4 -8 3 -18 1 -21 -4 -3 -5 13 -8 37 -6 50 3
80 -4 71 -17 -3 -6 -13 -8 -21 -5 -8 3 -12 2 -9 -3 12 -20 -126 -115 -276
-191 -199 -102 -275 -129 -511 -187 l-192 -47 -235 0 c-207 0 -257 3 -414 27
-98 16 -208 35 -245 43 -211 49 -539 158 -637 214 -69 39 -222 139 -229 150
-6 9 109 -34 219 -82 192 -84 594 -181 891 -214 197 -22 578 -14 720 15 289
60 614 184 825 314 76 47 97 56 85 36z m-51 -317 c-11 -10 -29 -30 -38 -45
-18 -26 -18 -27 0 -28 85 -5 158 14 206 52 20 16 40 29 43 29 8 0 -82 -105
-151 -176 -93 -96 -366 -254 -526 -305 -128 -41 -170 -37 -79 7 23 10 41 22
41 25 0 4 -39 -4 -87 -16 -199 -52 -436 -115 -551 -149 -156 -45 -215 -45
-412 -1 -108 24 -112 28 -54 58 75 38 103 44 329 77 116 17 242 37 280 45 39
8 107 21 153 30 173 33 526 172 644 253 24 16 81 60 127 96 45 36 86 66 89 66
4 -1 -2 -8 -14 -18z m-2177 -205 c38 -38 8 -127 -42 -127 -30 0 -62 30 -71 65
-9 37 40 89 76 80 14 -4 30 -12 37 -18z m1454 -322 c-18 -8 -41 -15 -50 -14
-22 1 39 28 64 28 14 0 9 -4 -14 -14z m39 -9 c0 -2 -7 -7 -16 -10 -8 -3 -12
-2 -9 4 6 10 25 14 25 6z m-110 -14 c0 -4 17 -7 38 -5 l37 3 -31 -15 c-39 -18
-134 -31 -134 -18 0 13 22 33 38 33 7 0 10 -4 7 -10 -3 -5 1 -10 9 -10 9 0 15
3 15 8 -3 14 1 22 11 22 6 0 10 -4 10 -8z m-210 -68 c-25 -7 -76 -16 -115 -19
-66 -4 -67 -4 -19 5 28 5 60 13 72 17 12 4 41 9 64 10 l43 2 -45 -15z m2170
-349 c61 -31 91 -113 57 -155 -25 -32 -71 -60 -98 -60 -59 0 -121 87 -100 142
11 28 78 88 99 88 7 0 26 -7 42 -15z m-3834 -406 c118 -16 210 -57 338 -151 7
-5 -48 -80 -135 -182 -4 -5 -21 2 -37 16 -77 64 -261 106 -345 79 -100 -33
-103 -159 -5 -195 24 -8 102 -31 174 -50 159 -43 229 -72 282 -121 112 -101
130 -290 41 -424 -42 -63 -99 -108 -185 -148 -134 -61 -378 -34 -548 61 -63
35 -139 102 -134 116 2 4 40 47 86 95 l84 86 43 -40 c24 -22 62 -49 85 -61 52
-26 181 -60 229 -60 147 1 211 171 83 221 -15 6 -94 29 -175 50 -237 62 -312
109 -352 219 -28 77 -26 204 4 282 43 112 159 186 323 207 34 5 64 9 65 10 1
0 36 -4 79 -10z m1203 -19 c105 -12 176 -44 238 -107 200 -201 144 -558 -104
-669 -72 -32 -155 -44 -312 -44 l-134 0 4 -182 4 -183 -120 -3 -120 -3 -3 603
-4 603 234 -3 c128 -1 271 -6 317 -12z m800 10 l77 0 3 -600 3 -600 -125 0
-124 0 1 606 1 606 44 -6 c24 -3 78 -6 120 -6z m938 -9 c108 -7 142 -13 187
-34 72 -33 149 -106 181 -171 36 -74 53 -199 36 -278 -23 -115 -96 -211 -192
-255 -21 -10 -39 -23 -39 -29 0 -21 95 -169 188 -291 50 -67 92 -125 92 -128
0 -3 -67 -5 -149 -5 l-148 0 -25 48 c-13 26 -67 114 -119 196 l-94 148 -56 -6
c-31 -3 -70 -1 -88 4 l-31 9 0 -200 0 -199 -120 0 -120 0 0 398 c0 218 -3 488
-7 600 l-6 202 189 0 c104 -1 248 -5 321 -9z m973 -595 l0 -605 -112 6 c-62 3
-115 7 -117 9 -3 3 -5 272 -6 599 l-2 595 118 0 119 0 0 -604z m1148 487 l-3
-118 -165 0 -165 0 0 -482 0 -483 -123 0 -123 0 3 486 3 486 -162 -4 -163 -4
0 118 0 118 450 0 451 0 -3 -117z"/>
<path d="M4620 6475 c17 -25 33 -45 36 -45 3 0 -9 20 -26 45 -17 25 -33 45
-36 45 -3 0 9 -20 26 -45z"/>
<path d="M4680 6383 c0 -5 10 -18 23 -29 l22 -19 -20 25 c-11 14 -21 27 -22
29 -2 2 -3 0 -3 -6z"/>
<path d="M4748 6293 c17 -21 52 -58 78 -83 32 -30 24 -18 -26 38 -76 85 -104
109 -52 45z"/>
<path d="M4955 6100 c23 -26 128 -102 165 -119 l25 -12 -25 18 c-13 10 -61 45
-105 77 -44 32 -71 49 -60 36z"/>
<path d="M6019 4093 c-13 -16 -12 -17 4 -4 16 13 21 21 13 21 -2 0 -10 -8 -17
-17z"/>
<path d="M5960 4043 c-24 -24 -28 -32 -13 -24 12 6 25 16 28 21 4 6 10 8 14 6
4 -3 8 4 8 15 1 10 1 19 0 19 -1 0 -18 -17 -37 -37z"/>
<path d="M5778 3911 c-181 -122 -167 -112 -143 -104 11 4 22 9 25 13 7 8 130
80 138 80 4 0 25 17 48 38 23 20 50 42 60 49 10 6 15 12 9 11 -5 0 -67 -39
-137 -87z"/>
<path d="M5461 3724 c-51 -25 -90 -48 -87 -52 4 -3 21 1 39 10 18 9 46 21 64
28 33 12 104 61 87 59 -5 0 -51 -21 -103 -45z"/>
<path d="M5340 3660 c-9 -6 -10 -10 -3 -10 6 0 15 5 18 10 8 12 4 12 -15 0z"/>
<path d="M7286 7115 c15 -27 35 -61 44 -75 9 -14 32 -55 50 -92 19 -37 36 -65
38 -63 7 7 -108 217 -143 260 -9 11 -4 -2 11 -30z"/>
<path d="M7420 6865 c0 -5 5 -17 10 -25 5 -8 10 -10 10 -5 0 6 -5 17 -10 25
-5 8 -10 11 -10 5z"/>
<path d="M7450 6785 c0 -5 5 -17 10 -25 5 -8 10 -10 10 -5 0 6 -5 17 -10 25
-5 8 -10 11 -10 5z"/>
<path d="M5207 6483 c28 -27 64 -58 80 -68 35 -22 16 -3 -67 65 l-65 53 52
-50z"/>
<path d="M5329 6386 c13 -16 51 -41 51 -33 0 2 -15 14 -32 27 -21 15 -28 17
-19 6z"/>
<path d="M5395 6340 c7 -11 65 -43 65 -36 0 2 -16 13 -36 25 -19 12 -32 16
-29 11z"/>
<path d="M6375 5730 c10 -11 20 -20 23 -20 3 0 -3 9 -13 20 -10 11 -20 20 -23
20 -3 0 3 -9 13 -20z"/>
<path d="M2870 6147 c0 -2 15 -16 33 -33 l32 -29 -29 33 c-28 30 -36 37 -36
29z"/>
<path d="M2997 5998 c44 -58 323 -347 323 -336 0 3 17 -9 37 -28 20 -19 39
-32 41 -29 3 3 3 7 1 8 -128 104 -273 247 -389 385 -29 34 -55 62 -57 62 -2 0
17 -28 44 -62z"/>
<path d="M3410 5595 c0 -4 100 -73 130 -90 11 -6 12 -5 5 3 -13 14 -135 93
-135 87z"/>
<path d="M3757 5375 c174 -85 508 -188 643 -199 48 -4 31 1 -65 20 -151 29
-373 101 -534 173 -139 63 -170 66 -44 6z"/>
<path d="M5128 5203 c7 -3 16 -2 19 1 4 3 -2 6 -13 5 -11 0 -14 -3 -6 -6z"/>
<path d="M4488 5163 c12 -2 30 -2 40 0 9 3 -1 5 -23 4 -22 0 -30 -2 -17 -4z"/>
<path d="M4605 5150 c28 -4 54 -3 60 1 5 5 -16 8 -50 8 l-60 -2 50 -7z"/>
<path d="M4708 5143 c17 -2 47 -2 65 0 17 2 3 4 -33 4 -36 0 -50 -2 -32 -4z"/>
<path d="M2914 5451 c7 -11 68 -59 170 -133 28 -21 66 -51 83 -68 18 -16 39
-30 47 -30 8 0 59 -23 113 -50 119 -61 97 -42 -52 47 -60 36 -155 98 -210 137
-120 86 -160 112 -151 97z"/>
<path d="M3446 5106 c18 -13 77 -41 171 -82 17 -8 35 -14 40 -13 8 0 -216 109
-226 109 -3 0 4 -6 15 -14z"/>
<path d="M5075 4870 c-13 -5 -14 -9 -5 -9 8 0 24 4 35 9 13 5 14 9 5 9 -8 0
-24 -4 -35 -9z"/>
<path d="M4240 4820 c0 -5 5 -10 11 -10 5 0 7 5 4 10 -3 6 -8 10 -11 10 -2 0
-4 -4 -4 -10z"/>
<path d="M3981 2552 l1 -194 152 4 c136 3 155 5 187 26 46 28 67 60 78 118 12
62 -4 122 -41 161 -55 57 -89 67 -240 73 l-138 5 1 -193z"/>
<path d="M5762 2553 l-4 -185 159 3 c136 4 163 7 193 24 71 42 103 167 61 245
-10 19 -37 49 -60 65 -43 30 -43 30 -194 32 l-152 1 -3 -185z"/>
</g>
</svg>
